<svg viewBox="0 0 53 56" xmlns="http://www.w3.org/2000/svg">
    <g filter="url(#filter0_d)">
    <path fill-rule="evenodd" clip-rule="evenodd" d="M10.936 27.9999L22.6668 15.3667V8.3667L4.43604 27.9999L22.6668 47.633V40.633L10.936 27.9999ZM31.3335 36.9454V47.633L13.1027 27.9999L31.3335 8.3667V18.748C42.7325 19.6299 48.6668 27.6515 48.6668 41.9999V47.633L44.9681 43.6498C40.2682 38.5883 35.7631 36.4206 31.3335 36.9454ZM27.0004 19.633L19.2312 27.9998L27.0004 36.3666V33.178L28.6416 32.7361C33.8313 31.3389 38.9737 32.6706 43.9862 36.5922C42.7077 27.5564 37.8815 23.3331 29.167 23.3331H27.0004V19.633Z"/>
    </g>
    <defs>
    <filter id="filter0_d" x="-3" y="0" width="60" height="64" filterUnits="userSpaceOnUse" color-interpolation-filters="sRGB">
    <feFlood flood-opacity="0" result="BackgroundImageFix"/>
    <feColorMatrix in="SourceAlpha" type="matrix" values="0 0 0 0 0 0 0 0 0 0 0 0 0 0 0 0 0 0 127 0"/>
    <feOffset dy="4"/>
    <feGaussianBlur stdDeviation="2"/>
    <feColorMatrix type="matrix" values="0 0 0 0 0 0 0 0 0 0 0 0 0 0 0 0 0 0 0.25 0"/>
    <feBlend mode="normal" in2="BackgroundImageFix" result="effect1_dropShadow"/>
    <feBlend mode="normal" in="SourceGraphic" in2="effect1_dropShadow" result="shape"/>
    </filter>
    </defs>
</svg>
