<svg viewBox="0 0 50 55" xmlns="http://www.w3.org/2000/svg">
<g id="24 / file / clipboard">
<path id="icon" fill-rule="evenodd" clip-rule="evenodd" d="M18.7415 4.58341C20.3087 3.12356 22.5815 2.29175 25 2.29175C27.4185 2.29175 29.6912 3.12356 31.2585 4.58341H33.3333C35.6345 4.58341 37.5 6.63544 37.5 9.16675L39.5833 9.16675C41.8845 9.16675 43.75 11.2188 43.75 13.7501V48.1251C43.75 50.6564 41.8845 52.7084 39.5833 52.7084H10.4167C8.11548 52.7084 6.25 50.6564 6.25 48.1251V13.7501C6.25 11.2188 8.11548 9.16675 10.4167 9.16675L12.5 9.16675C12.5 6.63544 14.3655 4.58341 16.6667 4.58341H18.7415ZM33.3333 16.0417C34.8756 16.0417 36.2221 15.12 36.9426 13.7501H39.5833V48.1251H10.4167V13.7501H13.0574C13.7779 15.12 15.1244 16.0417 16.6667 16.0417H33.3333ZM20.5367 9.16675L21.1597 8.37699C21.8442 7.50928 23.3113 6.87508 25 6.87508C26.6887 6.87508 28.1558 7.50928 28.8403 8.37699L29.4633 9.16675H33.3333V11.4584H16.6667V9.16675H19.5861H20.5367Z"/>
</g>
</svg>
