<svg viewBox="0 0 35 35" fill="none" xmlns="http://www.w3.org/2000/svg">
    <path d="M23.3334 30.625V27.7083C23.3334 26.1612 22.7188 24.6775 21.6248 23.5835C20.5309 22.4896 19.0471 21.875 17.5 21.875H7.29171C5.74461 21.875 4.26088 22.4896 3.16692 23.5835C2.07296 24.6775 1.45837 26.1612 1.45837 27.7083V30.625" stroke="white" stroke-width="2" stroke-linecap="round" stroke-linejoin="round"/>
    <path d="M29.1666 11.6667V20.4167" stroke="white" stroke-width="2" stroke-linecap="round" stroke-linejoin="round"/>
    <path d="M33.5416 16.0417H24.7916" stroke="white" stroke-width="2" stroke-linecap="round" stroke-linejoin="round"/>
    <path d="M12.3958 16.0417C15.6175 16.0417 18.2292 13.43 18.2292 10.2083C18.2292 6.98667 15.6175 4.375 12.3958 4.375C9.17417 4.375 6.5625 6.98667 6.5625 10.2083C6.5625 13.43 9.17417 16.0417 12.3958 16.0417Z" stroke="white" stroke-width="2" stroke-linecap="round" stroke-linejoin="round"/>
</svg>
