<svg viewBox="0 0 54 53" xmlns="http://www.w3.org/2000/svg">
<g id="24 / basic / globe">
<path fill-rule="evenodd" clip-rule="evenodd" d="M27 2.20825C40.669 2.20825 51.75 13.084 51.75 26.4999C51.75 39.9158 40.669 50.7916 27 50.7916C13.331 50.7916 2.25 39.9158 2.25 26.4999C2.25 13.084 13.331 2.20825 27 2.20825ZM6.89772 24.0871C7.55368 24.9111 9.37759 25.9654 12.1686 26.8257C13.2675 27.1644 14.4711 27.4621 15.7625 27.715C15.7542 27.3123 15.75 26.9072 15.75 26.4999C15.75 19.1514 17.1125 12.5152 19.4727 8.04338C12.7443 10.6892 7.79914 16.7766 6.89772 24.0871ZM16.0406 32.2655C12.4275 31.6491 9.32949 30.7162 6.98166 29.516C8.07381 36.5571 12.9302 42.3838 19.4728 44.9565C17.7495 41.6915 16.5581 37.2728 16.0406 32.2655ZM20.6525 32.854C22.671 33.0325 24.797 33.1249 27 33.1249C29.1675 33.1249 31.303 33.0043 33.3569 32.7807C32.342 40.7254 29.5358 46.3749 27 46.3749C24.4721 46.3749 21.6753 40.7601 20.6525 32.854ZM33.7192 28.2765C31.5827 28.5481 29.3131 28.7082 27 28.7082C24.6505 28.7082 22.3952 28.5941 20.2845 28.3775C20.2617 27.7599 20.25 27.1337 20.25 26.4999C20.25 15.4229 23.8356 6.62495 27 6.62495C30.1644 6.62495 33.75 15.4229 33.75 26.4999C33.75 27.0992 33.7395 27.6917 33.7192 28.2765ZM37.9783 32.0801C37.4712 37.1638 36.2717 41.6513 34.5272 44.9565C41.1853 42.3384 46.0971 36.3504 47.0726 29.142C44.6873 30.3598 41.5456 31.378 37.9783 32.0801ZM47.0891 23.9827C46.0304 25.1491 42.6908 26.5347 38.2415 27.5028C38.2472 27.1701 38.25 26.8357 38.25 26.4999C38.25 19.1514 36.8875 12.5152 34.5273 8.04338C41.2237 10.6766 46.1537 16.7187 47.0891 23.9827Z"/>
</g>
</svg>
