<svg viewBox="0 0 30 32" xmlns="http://www.w3.org/2000/svg">
    <path fill-rule="evenodd" clip-rule="evenodd" d="M10 12C10 6.8453 13.9175 2.66663 18.75 2.66663C23.5825 2.66663 27.5 6.8453 27.5 12C27.5 17.1546 23.5825 21.3333 18.75 21.3333H16.25V24H13.75V26.6666H11.25V29.3333H2.5V22.1143L10.185 13.917C10.0624 13.2913 10 12.6497 10 12ZM13.75 21.3333V18.6666H18.75C22.2018 18.6666 25 15.6819 25 12C25 8.31807 22.2018 5.3333 18.75 5.3333C15.2982 5.3333 12.5 8.31807 12.5 12C12.5 12.6648 12.5909 13.3151 12.7676 13.9371L12.9848 14.7017L4.99999 23.2189V26.6666H8.74999V24H11.25V21.3333H13.75ZM16.25 12C16.25 13.4727 17.3693 14.6666 18.75 14.6666C20.1307 14.6666 21.25 13.4727 21.25 12C21.25 10.5272 20.1307 9.3333 18.75 9.3333C17.3693 9.3333 16.25 10.5272 16.25 12Z"/>
</svg>
