<svg width="56" height="52" viewBox="0 0 56 52" fill="none" xmlns="http://www.w3.org/2000/svg">
<g id="24 / basic / list">
<path id="icon" fill-rule="evenodd" clip-rule="evenodd" d="M4.66663 13.0001C4.66663 15.3933 6.75596 17.3334 9.33329 17.3334C11.9106 17.3334 14 15.3933 14 13.0001C14 10.6068 11.9106 8.66675 9.33329 8.66675C6.75596 8.66675 4.66663 10.6068 4.66663 13.0001ZM51.3333 10.8334V15.1667H18.6666V10.8334H51.3333ZM51.3333 28.1667V23.8334H18.6666V28.1667H51.3333ZM18.6666 41.1667H51.3333V36.8334H18.6666V41.1667ZM4.66663 39.0001C4.66663 41.3933 6.75596 43.3334 9.33329 43.3334C11.9106 43.3334 14 41.3933 14 39.0001C14 36.6068 11.9106 34.6667 9.33329 34.6667C6.75596 34.6667 4.66663 36.6068 4.66663 39.0001ZM9.33329 30.3334C6.75596 30.3334 4.66663 28.3933 4.66663 26.0001C4.66663 23.6068 6.75596 21.6667 9.33329 21.6667C11.9106 21.6667 14 23.6068 14 26.0001C14 28.3933 11.9106 30.3334 9.33329 30.3334Z" fill="#BDBDBD"/>
</g>
</svg>
