<svg viewBox="0 0 56 53" xmlns="http://www.w3.org/2000/svg">
    <g id="24 / basic / pencil-edit">
    <path fill-rule="evenodd" clip-rule="evenodd" d="M51.3333 44.1665V28.7082H46.6667V44.1665H9.33332V8.83317H25.6667V4.4165H9.33332C6.75599 4.4165 4.66666 6.39391 4.66666 8.83317V44.1665C4.66666 46.6058 6.75599 48.5832 9.33332 48.5832H46.6667C49.244 48.5832 51.3333 46.6058 51.3333 44.1665ZM44.7489 6.01406C43.6793 4.99381 42.2149 4.4165 40.6871 4.4165C39.1611 4.4165 37.6982 4.9925 36.6226 6.01672L17.0951 24.4978C15.3502 25.9529 14.2063 28.1182 14.0076 30.4468L14 37.5466V39.755H23.6474C26.2941 39.5832 28.6044 38.49 30.2342 36.7106L49.651 18.3419C50.7283 17.3224 51.3334 15.9396 51.3334 14.4977C51.3334 13.0559 50.7283 11.6731 49.651 10.6535L44.7489 6.01406ZM23.4826 35.3438C24.7291 35.2603 25.8895 34.7113 26.8212 33.7026L40.9656 20.3159L34.539 14.2331L20.2909 27.7135C19.3455 28.5048 18.7607 29.6119 18.6667 30.6246V35.3397L23.4826 35.3438ZM37.8393 11.1106L44.2655 17.1928L46.3512 15.2188C46.5533 15.0276 46.6668 14.7682 46.6668 14.4977C46.6668 14.2273 46.5533 13.9679 46.3512 13.7766L41.4426 9.13098C41.2428 8.94038 40.9708 8.83317 40.6871 8.83317C40.4034 8.83317 40.1315 8.94038 39.9317 9.13098L37.8393 11.1106Z"/>
    </g>
</svg>
