<svg width="37" height="34" viewBox="0 0 37 34" fill="none" xmlns="http://www.w3.org/2000/svg">
<g id="24 / basic / settings">
<path id="icon" fill-rule="evenodd" clip-rule="evenodd" d="M28.7617 29.6041L32.1798 26.4631L30.976 22.4442L31.5004 21.2931L35.4584 19.2409V14.7991L31.5117 12.7382L30.996 11.5892L32.215 7.56829L28.7944 4.42964L24.4205 5.53555L23.1707 5.05402L20.9372 1.41663H16.1035L13.8608 5.04335L12.6107 5.51712L8.23564 4.3956L4.82042 7.53392L6.02411 11.5538L5.50009 12.7023L1.54175 14.7547V19.1953L5.48493 21.2607L6.00105 22.4107L4.78228 26.431L8.1988 29.5705L12.5734 28.4644L13.8233 28.9459L16.057 32.5819H20.8894L23.1355 28.9583L24.3867 28.4841L28.7617 29.6041ZM29.0646 19.3029L27.7206 22.2526L28.7309 25.6254L27.8546 26.4307L24.192 25.4931L20.9806 26.7101L19.0972 29.7485H17.8571L15.9893 26.7082L12.7829 25.4728L9.11051 26.4013L8.23571 25.5974L9.25603 22.2318L7.93168 19.281L4.62509 17.549V16.4093L7.9352 14.6929L9.27968 11.7463L8.2692 8.3717L9.14218 7.5695L12.8048 8.50839L16.0173 7.29091L17.8978 4.24996H19.1367L21.0045 7.29168L24.211 8.52715L27.8842 7.59843L28.7611 8.40314L27.741 11.7681L29.0658 14.7199L32.3751 16.4479V17.5864L29.0646 19.3029ZM18.5001 22.6666C15.0943 22.6666 12.3334 20.1296 12.3334 17C12.3334 13.8703 15.0943 11.3333 18.5001 11.3333C21.9058 11.3333 24.6667 13.8703 24.6667 17C24.6667 20.1296 21.9058 22.6666 18.5001 22.6666ZM21.5834 17C21.5834 18.5648 20.203 19.8333 18.5001 19.8333C16.7972 19.8333 15.4167 18.5648 15.4167 17C15.4167 15.4351 16.7972 14.1666 18.5001 14.1666C20.203 14.1666 21.5834 15.4351 21.5834 17Z" fill="#C4C4C4"/>
</g>
</svg>
