<svg viewBox="0 0 39 40" xmlns="http://www.w3.org/2000/svg">
<path d="M32.5 14.9C32.4831 14.7469 32.4504 14.596 32.4025 14.45V14.3C32.3244 14.1286 32.2201 13.9711 32.0938 13.8333L22.3438 3.83331C22.2094 3.70367 22.0558 3.59678 21.8888 3.51665H21.7425L21.2225 3.33331H11.375C10.0821 3.33331 8.84209 3.8601 7.92785 4.79778C7.01361 5.73546 6.5 7.00723 6.5 8.33331V31.6666C6.5 32.9927 7.01361 34.2645 7.92785 35.2022C8.84209 36.1399 10.0821 36.6666 11.375 36.6666H27.625C28.9179 36.6666 30.1579 36.1399 31.0721 35.2022C31.9864 34.2645 32.5 32.9927 32.5 31.6666V15C32.5 15 32.5 15 32.5 14.9ZM22.75 9.01665L26.9587 13.3333H22.75V9.01665ZM29.25 31.6666C29.25 32.1087 29.0788 32.5326 28.774 32.8452C28.4693 33.1577 28.056 33.3333 27.625 33.3333H11.375C10.944 33.3333 10.5307 33.1577 10.226 32.8452C9.92121 32.5326 9.75 32.1087 9.75 31.6666V8.33331C9.75 7.89129 9.92121 7.46736 10.226 7.1548C10.5307 6.84224 10.944 6.66665 11.375 6.66665H19.5V15C19.5 15.442 19.6712 15.8659 19.976 16.1785C20.2807 16.4911 20.694 16.6666 21.125 16.6666H29.25V31.6666Z" />
</svg>
