<svg width="31" height="28" viewBox="0 0 31 28" fill="none" xmlns="http://www.w3.org/2000/svg">
<path d="M29.4242 12.0984C29.3026 11.963 29.149 11.854 28.9746 11.7793C28.8003 11.7046 28.6096 11.6661 28.4167 11.6667H25.8333V10.5C25.8333 9.57177 25.4251 8.68153 24.6984 8.02515C23.9717 7.36878 22.986 7.00003 21.9583 7.00003H13.8467L13.4333 5.83336C13.1654 5.14879 12.6683 4.55645 12.0111 4.13838C11.3538 3.72031 10.5689 3.49723 9.76499 3.50003H5.16666C4.13894 3.50003 3.15332 3.86878 2.42662 4.52515C1.69991 5.18153 1.29166 6.07177 1.29166 7.00003V21C1.29166 21.9283 1.69991 22.8185 2.42662 23.4749C3.15332 24.1313 4.13894 24.5 5.16666 24.5H23.7667C24.6466 24.4977 25.4994 24.225 26.1849 23.7267C26.8704 23.2284 27.3477 22.5342 27.5383 21.7584L29.7083 13.09C29.7476 12.9161 29.7424 12.7364 29.6932 12.5645C29.6439 12.3927 29.5519 12.2332 29.4242 12.0984ZM6.93624 21.2567C6.87062 21.5199 6.70605 21.7544 6.47055 21.9203C6.23504 22.0862 5.94316 22.1733 5.64457 22.1667H5.16666C4.82409 22.1667 4.49554 22.0438 4.25331 21.825C4.01108 21.6062 3.87499 21.3094 3.87499 21V7.00003C3.87499 6.69061 4.01108 6.39386 4.25331 6.17507C4.49554 5.95628 4.82409 5.83336 5.16666 5.83336H9.76499C10.0467 5.82008 10.3254 5.89044 10.5586 6.03369C10.7919 6.17694 10.9668 6.38521 11.0567 6.62669L11.7542 8.54003C11.837 8.76256 11.9923 8.95733 12.1997 9.09887C12.4071 9.24041 12.657 9.32214 12.9167 9.33336H21.9583C22.3009 9.33336 22.6294 9.45628 22.8717 9.67507C23.1139 9.89386 23.25 10.1906 23.25 10.5V11.6667H10.3333C10.0347 11.6601 9.74285 11.7472 9.50735 11.9131C9.27184 12.079 9.10728 12.3135 9.04166 12.5767L6.93624 21.2567ZM25.0196 21.2567C24.954 21.5199 24.7894 21.7544 24.5539 21.9203C24.3184 22.0862 24.0265 22.1733 23.7279 22.1667H9.31291C9.37962 22.0367 9.42738 21.8994 9.45499 21.7584L11.3667 14H26.8667L25.0196 21.2567Z" fill="#C4C4C4"/>
</svg>
