<svg viewBox="0 0 27 25" xmlns="http://www.w3.org/2000/svg">
    <path d="M15.75 13.0209H14.625V11.9793C14.625 11.703 14.5065 11.4381 14.2955 11.2427C14.0845 11.0474 13.7984 10.9376 13.5 10.9376C13.2016 10.9376 12.9155 11.0474 12.7045 11.2427C12.4935 11.4381 12.375 11.703 12.375 11.9793V13.0209H11.25C10.9516 13.0209 10.6655 13.1307 10.4545 13.326C10.2435 13.5214 10.125 13.7863 10.125 14.0626C10.125 14.3389 10.2435 14.6038 10.4545 14.7992C10.6655 14.9945 10.9516 15.1043 11.25 15.1043H12.375V16.1459C12.375 16.4222 12.4935 16.6872 12.7045 16.8825C12.9155 17.0779 13.2016 17.1876 13.5 17.1876C13.7984 17.1876 14.0845 17.0779 14.2955 16.8825C14.5065 16.6872 14.625 16.4222 14.625 16.1459V15.1043H15.75C16.0484 15.1043 16.3345 14.9945 16.5455 14.7992C16.7565 14.6038 16.875 14.3389 16.875 14.0626C16.875 13.7863 16.7565 13.5214 16.5455 13.326C16.3345 13.1307 16.0484 13.0209 15.75 13.0209ZM21.375 5.72927H14.31L13.95 4.6876C13.7166 4.07639 13.2837 3.5475 12.7113 3.17423C12.1388 2.80096 11.4552 2.60177 10.755 2.60427H5.625C4.72989 2.60427 3.87145 2.93351 3.23851 3.51956C2.60558 4.10561 2.25 4.90047 2.25 5.72927V19.2709C2.25 20.0997 2.60558 20.8946 3.23851 21.4806C3.87145 22.0667 4.72989 22.3959 5.625 22.3959H21.375C22.2701 22.3959 23.1286 22.0667 23.7615 21.4806C24.3944 20.8946 24.75 20.0997 24.75 19.2709V8.85427C24.75 8.02547 24.3944 7.23061 23.7615 6.64456C23.1286 6.05851 22.2701 5.72927 21.375 5.72927ZM22.5 19.2709C22.5 19.5472 22.3815 19.8122 22.1705 20.0075C21.9595 20.2029 21.6734 20.3126 21.375 20.3126H5.625C5.32663 20.3126 5.04048 20.2029 4.8295 20.0075C4.61853 19.8122 4.5 19.5472 4.5 19.2709V5.72927C4.5 5.453 4.61853 5.18805 4.8295 4.9927C5.04048 4.79735 5.32663 4.6876 5.625 4.6876H10.755C10.9908 4.68704 11.2209 4.75512 11.4127 4.88223C11.6045 5.00934 11.7483 5.18904 11.8238 5.39594L12.4313 7.10427C12.5067 7.31117 12.6505 7.49087 12.8423 7.61798C13.0341 7.74508 13.2642 7.81317 13.5 7.8126H21.375C21.6734 7.8126 21.9595 7.92235 22.1705 8.1177C22.3815 8.31305 22.5 8.578 22.5 8.85427V19.2709Z"/>
</svg>
