<svg viewBox="0 0 34 34" xmlns="http://www.w3.org/2000/svg">
    <path fill-rule="evenodd" clip-rule="evenodd" d="M17.0001 32.5833C8.39364 32.5833 1.41675 25.6064 1.41675 17C1.41675 8.39352 8.39364 1.41663 17.0001 1.41663C25.6065 1.41663 32.5834 8.39352 32.5834 17C32.5834 25.6064 25.6065 32.5833 17.0001 32.5833ZM27.4827 24.2599C28.9123 22.1996 29.7501 19.6976 29.7501 17C29.7501 9.95835 24.0417 4.24998 17.0001 4.24998C9.95846 4.24998 4.25009 9.95835 4.25009 17C4.25009 19.6976 5.08788 22.1996 6.51747 24.2599C8.11185 22.1539 11.8584 21.25 17.0001 21.25C22.1417 21.25 25.8883 22.1539 27.4827 24.2599ZM25.45 26.548C25.0354 25.0571 22.0567 24.0833 17.0001 24.0833C11.9435 24.0833 8.96476 25.0571 8.55011 26.548C10.7998 28.5404 13.7587 29.75 17.0001 29.75C20.2415 29.75 23.2004 28.5404 25.45 26.548ZM17.0001 8.49998C13.5705 8.49998 11.3334 10.9873 11.3334 14.1666C11.3334 19.0221 13.828 21.25 17.0001 21.25C20.1424 21.25 22.6667 19.0961 22.6667 14.45C22.6667 11.2222 20.4202 8.49998 17.0001 8.49998ZM14.1667 14.1666C14.1667 17.3814 15.3259 18.4166 17.0001 18.4166C18.6685 18.4166 19.8334 17.4227 19.8334 14.4499C19.8334 12.6797 18.7223 11.3333 17.0001 11.3333C15.2062 11.3333 14.1667 12.489 14.1667 14.1666Z"/>
</svg>
