<svg width="489" height="422" viewBox="0 0 489 422" fill="none" xmlns="http://www.w3.org/2000/svg">
<g clip-path="url(#clip0_2752_1872)">
<path d="M300.801 43.3396C303.258 45.5064 305.636 47.7319 308 49.9998C308.929 50.866 309.859 51.7323 310.816 52.6248C342.552 82.752 361.736 127.325 363 171C363.04 172.2 363.08 173.4 363.121 174.636C363.33 187.015 362.737 199.892 360 212C345.498 210.218 323.815 203.429 313 193C312.518 190.314 312.518 190.314 312.531 187.066C312.52 185.87 312.509 184.673 312.497 183.44C312.498 182.16 312.499 180.881 312.5 179.562C311.949 148.117 302.482 119.224 282 94.9998C281.372 94.2328 280.744 93.4658 280.098 92.6756C258.334 66.7667 224.979 52.7278 191.937 49.2498C190.293 49.1457 188.647 49.0613 187 48.9998C186.185 48.9598 185.371 48.9199 184.531 48.8787C162.84 48.3233 141.366 53.3924 122 62.9998C120.289 63.8351 120.289 63.8351 118.543 64.6873C87.893 80.394 65.6346 108.472 55.125 141C45.1466 174.356 49.4638 209.131 65 240C67.1204 243.84 69.4532 247.43 72 251C72.7283 252.025 73.4566 253.049 74.207 254.105C95.6044 283.407 126.444 300.95 162 307C168.279 307.923 174.472 308.153 180.812 308.125C181.69 308.13 182.568 308.135 183.473 308.141C188.265 308.14 192.653 307.764 197.375 306.875C204.046 306.248 208.424 309.855 213.348 313.855C214.571 314.897 215.788 315.945 217 317C217.951 317.821 217.951 317.821 218.921 318.658C241.784 338.647 241.784 338.647 243 347C234.78 349.998 226.629 352.464 218.062 354.25C217.283 354.413 216.503 354.575 215.7 354.743C207.829 356.324 200.156 357.159 192.137 357.203C191.305 357.209 190.474 357.214 189.617 357.22C187.862 357.23 186.106 357.236 184.35 357.24C181.733 357.25 179.116 357.281 176.498 357.312C161.205 357.409 146.251 355.737 131.562 351.312C130.7 351.057 129.838 350.802 128.95 350.54C90.2426 338.753 57.0126 315.667 33 283C32.5786 282.433 32.1572 281.867 31.7231 281.283C10.038 251.775 -0.219967 215.472 -0.250031 179.187C-0.250705 178.454 -0.25138 177.721 -0.252075 176.966C-0.234745 165.086 0.428807 153.626 2.99997 142C3.16626 141.226 3.33255 140.452 3.50388 139.655C13.7426 93.4102 42.5582 53.8151 82 27.9998C104.763 13.7239 129.504 5.06805 156 0.999777C156.681 0.895202 157.361 0.790626 158.062 0.682882C209.724 -6.12816 261.128 10.1957 300.801 43.3396Z" fill="white"/>
<path d="M310 207C313.123 208.186 316.144 209.523 319.16 210.953C339.811 220.685 361.093 226.925 384 228C384.755 228.041 385.511 228.082 386.289 228.125C398.691 228.466 411.462 226.739 423.434 223.586C426 223 426 223 430 223C436.407 241.992 442.589 261.038 448.523 280.185C450.226 285.675 451.937 291.162 453.648 296.65C454.1 298.1 454.552 299.55 455.003 301C460.928 320.017 466.933 339.008 472.938 358C473.328 359.235 473.328 359.235 473.726 360.495C474.244 362.132 474.762 363.769 475.279 365.406C475.785 367.004 476.29 368.603 476.795 370.201C477.958 373.879 479.121 377.557 480.285 381.234C481.314 384.487 482.341 387.74 483.366 390.994C484.049 393.156 484.737 395.316 485.424 397.476C485.888 398.941 486.351 400.406 486.815 401.871C487.034 402.556 487.253 403.241 487.479 403.947C489 408.773 489 408.773 489 411C483.947 409.375 480.092 406.366 475.875 403.25C475.088 402.675 474.301 402.1 473.49 401.508C470.989 399.678 468.494 397.84 466 396C464.409 394.828 462.818 393.656 461.227 392.484C458.854 390.736 456.482 388.987 454.111 387.236C445.035 380.537 435.883 373.945 426.722 367.363C425.967 366.821 425.212 366.278 424.434 365.719C423.679 365.177 422.924 364.635 422.146 364.076C420.643 362.992 419.145 361.901 417.651 360.804C413.926 358.072 410.178 355.45 406.277 352.973C397.629 347.319 397.629 347.319 395 344C394.251 340.291 394.598 337.79 395.391 334.109C396.49 328.499 394.677 323.819 391.812 319.004C387.318 313.067 381.131 309.572 373.781 308.555C366.589 308.303 361.239 309.49 355 313C354.3 313.291 353.6 313.583 352.879 313.883C350.518 315.286 350.042 316.491 349 319C348.647 319.639 348.294 320.279 347.93 320.938C344.31 328.016 343.449 335.12 345.883 342.777C348.827 349.261 352.684 353.955 359.168 357.027C367.852 360.271 374.043 359.364 382.387 355.777C385.567 354.831 386.876 354.867 390 356C392.527 357.586 394.846 359.404 397.188 361.25C398.62 362.352 400.054 363.452 401.488 364.551C402.23 365.121 402.972 365.692 403.737 366.28C407.402 369.065 411.136 371.753 414.875 374.438C415.624 374.977 416.373 375.516 417.145 376.071C418.669 377.168 420.193 378.263 421.718 379.359C425.483 382.066 429.241 384.784 433 387.5C434.5 388.583 436 389.667 437.5 390.75C440.5 392.917 443.5 395.083 446.5 397.25C447.616 398.056 447.616 398.056 448.754 398.878C450.24 399.951 451.726 401.026 453.21 402.101C457.17 404.967 461.142 407.813 465.133 410.637C465.968 411.231 466.803 411.825 467.664 412.438C469.277 413.585 470.895 414.727 472.516 415.863C473.235 416.376 473.954 416.889 474.695 417.418C475.335 417.869 475.974 418.321 476.633 418.786C477.084 419.187 477.535 419.587 478 420C478 420.66 478 421.32 478 422C461.452 422.024 444.903 422.041 428.355 422.052C420.663 422.057 412.972 422.064 405.28 422.075C364.175 422.137 323.097 421.84 282 421C281.921 420.294 281.841 419.589 281.759 418.862C281.391 415.613 281.014 412.365 280.637 409.117C280.512 408.008 280.387 406.898 280.259 405.755C275.862 368.196 256.566 336.382 229 311C226.851 309.327 224.681 307.729 222.434 306.191C221.961 305.798 221.487 305.405 221 305C221 304.34 221 303.68 221 303C222.779 302.308 222.779 302.308 224.594 301.602C259.079 287.848 287.341 263.046 302.322 228.681C305.325 221.569 308.038 214.479 310 207Z" fill="white"/>
<path d="M203.75 149.125C212.275 156.29 217.21 165.077 218.312 176.132C218.738 187.391 215.626 196.668 208 205C200.06 213.351 191.613 216.494 180.168 217.031C169.773 216.928 160.467 213.494 152.75 206.437C144.701 197.85 141.585 187.779 141.727 176.257C142.624 165.564 147.256 156.952 155.324 149.996C169.786 139.121 188.89 138.543 203.75 149.125Z" fill="white"/>
<path d="M263 80C264.116 82.7651 264.027 83.9216 263.051 86.792C262.548 87.8661 262.045 88.9402 261.527 90.0469C261.116 90.9405 261.116 90.9405 260.696 91.8521C260.1 93.1448 259.498 94.4351 258.892 95.7232C257.595 98.4776 256.323 101.243 255.051 104.009C254.384 105.458 253.716 106.906 253.046 108.354C249.112 116.882 245.377 125.495 241.638 134.111C237.869 142.794 234.006 151.423 230 160C227.313 158.656 227.128 157.298 225.938 154.562C219.325 141.068 207.621 133.415 194 128C198.147 123.478 202.784 120.266 207.902 116.914C209.203 116.052 209.203 116.052 210.529 115.173C213.329 113.318 216.133 111.472 218.938 109.625C221.803 107.729 224.667 105.831 227.531 103.932C229.413 102.685 231.295 101.438 233.178 100.192C240.365 95.4321 247.513 90.6206 254.625 85.75C255.511 85.1437 256.396 84.5373 257.308 83.9126C259.207 82.6104 261.104 81.3066 263 80Z" fill="white"/>
<path d="M129 196C131.88 198.533 133.43 201.398 135.25 204.75C141.859 216.191 151.652 223.335 164 228C160.498 231.717 156.87 234.618 152.566 237.379C151.226 238.256 149.886 239.133 148.547 240.012C147.82 240.488 147.094 240.963 146.345 241.453C141.981 244.332 137.664 247.278 133.34 250.215C131.457 251.49 129.573 252.766 127.689 254.041C124.792 256.003 121.895 257.966 119 259.933C116.157 261.864 113.311 263.79 110.465 265.715C109.602 266.302 108.74 266.89 107.851 267.495C103.674 270.315 99.5818 272.894 95 275C97.2315 267.69 100.222 260.83 103.411 253.898C104.975 250.498 106.522 247.091 108.07 243.684C108.391 242.978 108.712 242.272 109.043 241.544C112.666 233.562 116.182 225.534 119.688 217.5C119.985 216.819 120.283 216.137 120.589 215.435C123.413 208.966 126.223 202.49 129 196Z" fill="white"/>
</g>
<defs>
<clipPath id="clip0_2752_1872">
<rect width="489" height="422" fill="white"/>
</clipPath>
</defs>
</svg>
